<svg width="1920" height="1024" viewBox="0 0 1920 1024" fill="none" xmlns="http://www.w3.org/2000/svg">
<mask id="mask0" mask-type="alpha" maskUnits="userSpaceOnUse" x="0" y="0" width="1920" height="1024">
<path d="M1920 0H0V1024H1920V0Z" fill="white"/>
</mask>
<g mask="url(#mask0)">
<path fill-rule="evenodd" clip-rule="evenodd" d="M1365 -151.058C1374.99 -150.989 1393.2 -138.906 1401.52 -135.117C1485.7 -96.7578 1620.36 -57.7409 1637.5 49.4666C1644.07 90.611 1627.62 132.24 1605.15 167.365C1562.14 234.604 1506.88 292.355 1476.08 367.214C1436.51 463.463 1525.33 505.801 1609.7 491.928C1685.36 479.481 1741.58 438.614 1812.2 418.288C1849.93 407.433 1920.21 396.578 1920.47 444.945L1917.3 -146.828L1365 -151.058Z" fill="#FF0000"/>
<path fill-rule="evenodd" clip-rule="evenodd" d="M1199.4 1133.58C1202.58 1134.3 1206.28 1134.11 1210.28 1133.52C1216.28 1132.61 1222.97 1130.69 1229.13 1128.79C1235.27 1126.89 1240.91 1125 1244.5 1124.17C1295.39 1112.42 1360.27 1103.73 1418.71 1082.57C1477.12 1061.44 1529.35 1027.65 1554.17 965.668C1556.52 959.807 1558.49 953.848 1560.1 947.815C1571.62 904.781 1565.36 858.141 1552.7 816.347C1525.09 725.402 1481.73 642.897 1469.73 546.873C1466.97 524.856 1468.16 506.02 1472.41 490.153C1480.92 458.512 1501.46 438.541 1527.99 428.343C1554.52 418.171 1587.08 417.992 1618.99 426.547C1628.37 429.061 1637.7 432.328 1646.8 436.309C1724.63 470.321 1773.85 533.1 1845.03 575.775C1860.44 584.999 1881.62 595.607 1902.52 601.21C1917.7 605.265 1932.77 606.737 1945.49 602.818C1951.84 600.854 1957.59 597.499 1962.28 592.469C1966.98 587.442 1970.59 580.774 1972.87 572.295C1972.99 571.842 1973.11 571.385 1973.22 570.924L1968.88 569.859C1968.77 570.293 1968.67 570.717 1968.55 571.139C1966.43 579.049 1963.15 584.996 1959.02 589.423C1952.82 596.038 1944.64 599.37 1935.09 600.347C1925.55 601.318 1914.71 599.86 1903.67 596.897C1883.4 591.47 1862.47 581.022 1847.32 571.943C1777.02 529.922 1727.65 466.882 1648.59 432.219C1639.28 428.148 1629.75 424.807 1620.15 422.234C1587.49 413.486 1554.06 413.586 1526.4 424.175C1498.74 434.732 1476.91 456.004 1468.1 488.997C1463.67 505.515 1462.48 524.943 1465.3 547.428C1477.48 644.47 1521.03 727.23 1548.42 817.643C1560.96 858.953 1567.01 904.826 1555.79 946.659C1554.22 952.524 1552.31 958.317 1550.03 964.007C1525.83 1024.39 1475.05 1057.41 1417.19 1078.38C1359.36 1099.32 1294.7 1108.02 1243.5 1119.82C1238.21 1121.05 1229.96 1124.01 1221.63 1126.36C1217.48 1127.53 1213.32 1128.55 1209.62 1129.11C1205.91 1129.67 1202.64 1129.75 1200.4 1129.22L1199.4 1133.58Z" fill="#F8F8F8"/>
<path fill-rule="evenodd" clip-rule="evenodd" d="M180.876 889.105C174.926 793.91 112.967 658.328 -2.76327 708.492C-83.5855 743.538 -134.721 828.556 -99.2487 915.051C-70.8885 984.213 -7.85421 1015.49 64.4253 1014.31C96.8964 1013.78 135.829 1012.43 157.945 985.299C179.037 959.44 182.87 921.224 180.876 889.105Z" fill="#121212"/>
<path opacity="0.3" fill-rule="evenodd" clip-rule="evenodd" d="M61.4531 684.324C60.5468 683.269 59.7227 682.066 58.9562 680.739C55.5573 674.827 53.1753 666.404 51.1958 658.195C49.2308 650.012 47.697 642.028 46.3072 637.443C30.117 583.791 3.86428 518.271 -7.83833 453.308C-13.6863 420.819 -15.9019 388.446 -11.3381 357.724C-6.77589 327.008 4.59658 297.931 25.8538 272.242C37.9299 257.641 52.6049 245.912 68.8195 236.55C96.5358 220.553 128.755 211.432 160.475 206.592C256.478 191.979 353.219 196.123 445.616 164.415C456.395 160.717 465.896 156.419 474.211 151.619C503.66 134.583 518.199 111.407 521.813 85.7887C525.41 60.1662 517.898 31.9525 502.539 5.35898C490.073 -16.2328 472.459 -36.7333 451.589 -53.8721C380.118 -112.637 297.983 -131.207 222.461 -179.609C199.496 -194.375 168.091 -218.645 153.077 -244.577C147.393 -254.422 144.051 -264.59 144.667 -274.629C145.275 -284.672 149.957 -294.442 159.749 -303.116L162.517 -300C153.382 -291.859 149.388 -283.276 148.817 -274.365C148.259 -265.447 151.247 -256.051 156.676 -246.655C170.949 -221.859 202.03 -197.632 224.699 -183.114C299.369 -135.149 381.776 -116.548 454.222 -57.0906C475.462 -39.6453 493.393 -18.7943 506.138 3.28095C521.827 30.4538 529.682 59.5277 525.932 86.3736C522.198 113.23 506.675 137.719 476.294 155.227C467.724 160.174 457.975 164.576 446.971 168.351C353.6 200.348 256.564 196.134 161.109 210.709C129.74 215.491 97.9954 224.511 70.9023 240.158C55.0441 249.314 40.775 260.732 29.058 274.899C8.32925 299.965 -2.74599 328.236 -7.22231 358.345C-13.9412 403.496 -5.71719 452.776 7.29628 500.859C20.3025 548.946 38.0759 595.806 50.2899 636.245C51.7897 641.228 53.291 649.14 55.2353 657.229C57.1651 665.293 59.5703 673.515 62.5554 678.661C63.2199 679.811 63.9083 680.804 64.594 681.601L61.4531 684.324Z" fill="#DBDBDB"/>
<path fill-rule="evenodd" clip-rule="evenodd" d="M-383.282 1045.86C-383.282 1023.6 -382.561 974.259 -382.561 922.305C-382.561 862.789 -382.561 803.273 -382.561 743.757C-382.561 698.811 -382.561 653.865 -382.561 608.919C-382.561 598.988 -387.017 585.122 -380.247 577.119C-377.904 574.347 -374.209 572.273 -368.518 571.317C-326.589 564.275 -284.28 554.104 -241.737 547.414C-200.959 541.009 -154.15 534.872 -114.189 546.743C-51.9112 565.253 -18.1222 616.761 -18.8043 666.574C-19.5702 722.871 -49.1942 775.144 -78.4437 825.606C-96.8924 857.44 -122.016 888.257 -129.306 925.188C-137.658 967.513 -107.839 995.044 -66.7093 996.072C-10.0272 997.486 41.9029 966.904 89.3327 939.429C134.482 913.273 175.365 880.539 219.832 853.315C260.53 828.389 296.175 815.205 344.539 820.654C425.931 829.825 492.553 886.882 534.185 954.536C546.736 974.924 563.949 1001.12 564 1025.77C564 1027.78 563.971 1052 564 1052L-383.282 1045.86Z" fill="#FF0000"/>
</g>
</svg>
